<!-- Generated by IcoMoon.io -->
<svg version="1.1" xmlns="http://www.w3.org/2000/svg" width="1024" height="1024" viewBox="0 0 1024 1024">
<title></title>
<g id="icomoon-ignore">
</g>
<path d="M846.4 509.4c16.2-18.6 13.8-46.4-3-60.4-14.2-12-36.4-12.4-52.8 0.2-78.8 71.8-157.6 143.8-236.2 215.6 0-209 0.2-418.2 0.2-627.2-2.6-21.4-20.8-37.6-42.4-37.6s-39.8 16.2-42.4 37.6c-0.2 209-0.4 418-0.4 627-77-70.6-153.8-141.4-230.8-212-17.4-17.4-45.6-16.8-61.2 0-14 15-14.6 39.8 0 56.6l334.4 306.2 334.6-306z"></path>
<path d="M931.4 981.2c0-21.8-16.4-40.2-38-42.8-254.2 0-508.4-0.2-762.6-0.2-21.6 2.6-38 21-38 42.8s16.4 40.2 38 42.8c254.2 0 508.4 0.2 762.6 0.2 21.6-2.6 38-21 38-42.8z"></path>
</svg>
