<?xml version="1.0" encoding="utf-8"?>
<!-- Generator: Adobe Illustrator 21.0.0, SVG Export Plug-In . SVG Version: 6.00 Build 0)  -->
<svg version="1.1" id="Слой_1" focusable="false"
	 xmlns="http://www.w3.org/2000/svg" xmlns:xlink="http://www.w3.org/1999/xlink" x="0px" y="0px" viewBox="0 0 512 512"
	 style="enable-background:new 0 0 512 512;" xml:space="preserve">
<style type="text/css">
	.st0{fill:#36758C;}
</style>
<g>
	<path class="st0" d="M334.5,88.1c-7.1-7.1-18.8-7.1-28.3,0c-7.1,9.4-7.1,21.2,0,30.6l106,115.4H246.3c-18.9,0-37.8,0-56.7,0
		c-9.1,0-18.1,0-27.2,0c-9.4,0-18.8,9.4-18.8,21.2c0,11.8,9.4,21.2,18.8,21.2c9.1,0,18.1,0,27.2,0.1v0.1c9.7,0,19.4,0,29.1,0
		c9.5,0,19.1,0,28.6,0.1v-0.1c54.9,0,109.9-0.1,164.8-0.1L306.1,392c-7.1,9.4-7.1,21.2,0,30.6c7.1,7.1,18.8,9.4,25.9,2.4l2.4-2.4
		l153.1-167.2L334.5,88.1z"/>
</g>
<path class="st0" d="M24.5,121.6V184v19.4v50.9v3.5v50.9V328v62.4c0,47.4,38.5,85.9,85.9,85.9h45.1l0,0h27.4c9.5,0,19-9.5,19-21.4
	s-9.5-21.4-19-21.4c-4.6,0-9.3,0-13.9,0v-0.1h-58.6c-23.8,0-43-19.3-43-43V328v-19.4v-50.9v-3.5v-50.9V184v-62.4
	c0-23.8,19.3-43,43-43l58.6,0v-0.1c4.6,0,9.3,0,13.9,0c9.5,0,19-9.5,19-21.4s-9.5-21.4-19-21.4h-27.4l0,0h-45.1
	C63,35.7,24.5,74.2,24.5,121.6z"/>
</svg>
