<?xml version="1.0" encoding="utf-8"?>
<!-- Generator: Adobe Illustrator 21.0.0, SVG Export Plug-In . SVG Version: 6.00 Build 0)  -->
<svg version="1.1" id="Capa_1" xmlns="http://www.w3.org/2000/svg" xmlns:xlink="http://www.w3.org/1999/xlink" x="0px" y="0px"
	 viewBox="0 0 1080 1080" style="enable-background:new 0 0 1080 1080;" xml:space="preserve">
<g>
	<g>
		<g>
			<path d="M730,787h-41.2c-11.3,0-20.6,9.2-20.6,20.6v144.1H174.4V128.4h493.9v144.1c0,11.3,9.2,20.6,20.6,20.6H730
				c11.3,0,20.6-9.2,20.6-20.6V128.4c0-45.5-36.9-82.3-82.3-82.3H174.4c-45.5,0-82.3,36.9-82.3,82.3v823.2
				c0,45.5,36.9,82.3,82.3,82.3h493.9c45.5,0,82.3-36.9,82.3-82.3V807.5C750.6,796.2,741.4,787,730,787z"/>
			<path d="M1073.2,524.8l-247-226.4c-6-5.5-14.7-7-22.2-3.7c-7.5,3.3-12.3,10.7-12.3,18.8v41.2c0,5.9,2.5,11.4,6.8,15.3
				l143.1,128.8h-582c-11.3,0-20.6,9.2-20.6,20.6v41.2c0,11.3,9.2,20.6,20.6,20.6h582.1L798.6,709.9c-4.3,3.9-6.8,9.4-6.8,15.3v41.2
				c0,8.1,4.8,15.5,12.3,18.8c2.7,1.2,5.5,1.7,8.3,1.7c5,0,10.1-1.8,13.9-5.4l247-226.4c4.3-3.9,6.7-9.4,6.7-15.2
				C1080,534.2,1077.4,528.7,1073.2,524.8z"/>
		</g>
	</g>
</g>
</svg>
