<?xml version="1.0" encoding="utf-8"?>
<!-- Generator: Adobe Illustrator 21.0.0, SVG Export Plug-In . SVG Version: 6.00 Build 0)  -->
<svg version="1.1" id="Слой_1" xmlns="http://www.w3.org/2000/svg" xmlns:xlink="http://www.w3.org/1999/xlink" x="0px" y="0px"
	 viewBox="0 0 512 512" style="enable-background:new 0 0 512 512;" xml:space="preserve">
<style type="text/css">
	.st0{display:none;}
</style>
<path class="st0" d="M506.3,232.5c-2.5-13.9-4.9-27.8-7.4-41.7c-0.8-4.6-2.6-10.6-6.6-16.8c-1.8-2.8-8.9-13.7-21.8-17.5
	c-3.4-1-7.7-1-16.4-1c-14.3,0-19.8,1.8-24.7-1.2c-0.8-4.6,5.3-13.2,9.9-20.6c5.3-8.5,8-12.8,8.9-16.3c2.9-11.8-2.5-22.5-4.3-26
	c-3.6-7-8.2-11.7-11.3-14.3C421.8,68,410.9,59,400.1,49.9c-3.6-3-8.8-6.5-15.8-8.6c-3.2-1-15.6-4.8-27.9,0.6
	c-3.2,1.4-6.5,4.2-13.2,9.8c-10.9,9.2-14,14.1-19.7,15c-3.6-3.1-4.4-13.5-5.6-22.1c-1.4-10-2.1-14.9-3.7-18.2
	c-5.4-10.9-16.4-15.6-20.1-17.2c-7.3-3.1-13.8-3.6-17.8-3.7c-14.1,0-28.3,0-42.4,0c-4.7,0-10.9,0.7-17.6,3.6
	c-3,1.3-15.1,6.4-21,18.4c-1.6,3.2-2.3,7.4-3.8,16c-2.5,14.1-1.7,19.8-5.5,24.1c-4.7-0.1-12.1-7.5-18.6-13.3
	c-7.5-6.7-11.2-10.1-14.6-11.6c-11.1-4.9-22.6-1.4-26.4-0.3c-7.6,2.3-12.9,6.1-16,8.7C99.7,60.1,88.9,69.2,78,78.3
	c-3.5,3-7.9,7.6-11.2,14.1c-1.5,2.9-7.4,14.6-4.2,27.6c0.8,3.4,3,7.2,7.4,14.7c7.2,12.3,11.4,16.2,11.3,22c-3.6,3-14,2-22.8,1.7
	c-10.1-0.3-15.1-0.5-18.6,0.5c-11.7,3.4-18.2,13.5-20.4,16.8c-4.3,6.6-6,13-6.7,16.9c-2.5,13.9-4.9,27.8-7.4,41.7
	c-0.8,4.6-1.2,10.9,0.5,18c0.7,3.2,3.7,15.9,14.5,23.9c2.8,2.1,6.9,3.6,15.1,6.5c13.4,4.9,19.2,5.1,22.8,9.6
	c-0.9,4.6-9.5,10.6-16.4,16C34,314.3,30,317.4,28,320.5c-6.7,10.1-5.3,22-4.8,26c0.9,7.8,3.8,13.8,5.7,17.3
	c7.1,12.2,14.1,24.5,21.2,36.7c2.4,4,6.1,9.1,11.9,13.5c2.6,2,13.1,9.9,26.4,9c3.5-0.2,7.6-1.7,15.7-4.7c13.4-4.9,18-8.4,23.6-7.3
	c2.3,4.1-0.4,14.2-2.3,22.8c-2.1,9.8-3.1,14.8-2.7,18.4c1.3,12.1,10.1,20.3,13,23c5.8,5.4,11.7,8.1,15.5,9.5
	c13.3,4.8,26.6,9.7,39.8,14.5c4.4,1.6,10.5,3,17.8,2.7c3.3-0.2,16.3-0.8,26-10.1c2.5-2.4,4.7-6.2,9-13.7c7.1-12.4,8.4-18,13.4-20.8
	c4.4,1.7,8.8,11.2,12.9,18.9c4.7,8.9,7.1,13.3,9.7,15.8c8.8,8.4,20.8,9.1,24.7,9.3c7.9,0.4,14.2-1.3,18-2.7
	c13.3-4.8,26.6-9.7,39.8-14.5c4.4-1.6,10-4.4,15.4-9.4c2.4-2.3,12-11.1,13.4-24.5c0.4-3.5-0.4-7.8-1.9-16.3
	c-2.5-14-5.2-19.2-3.1-24.5c4.4-1.6,13.9,2.9,22,6.2c9.3,3.8,14,5.6,17.6,5.9c12.1,0.8,21.7-6.4,24.9-8.8
	c6.3-4.7,10.1-10.1,12.1-13.6c7.1-12.2,14.1-24.5,21.2-36.7c2.3-4,4.8-9.8,5.7-17.1c0.4-3.3,2-16.2-5.5-27.4
	c-2-2.9-5.3-5.7-11.9-11.3c-11-9.2-16.3-11.4-18.1-16.8c2.4-4,12.5-6.7,20.8-9.4c9.6-3.1,14.4-4.7,17.3-6.8
	c9.8-7.2,12.5-18.9,13.4-22.7C507.5,243,506.9,236.4,506.3,232.5z M467.1,254.2l-31.2,11.1c-4.1,1.4-7.3,4.4-9.1,8.1l-0.9-0.1
	c-0.7,5.8-1.6,11.6-2.9,17.3c-1.3,6,0.8,12.1,5.5,16l26.2,21.7c5.6,4.6,7,12.5,3.4,18.8l-21.2,36.7c-3.6,6.3-11.2,9-18,6.5
	l-31.1-11.6c-4.1-1.5-8.4-1.3-12.2,0.3l-0.6-0.7c-4.3,4-8.7,7.8-13.3,11.4c-4.8,3.7-7.2,9.8-6.1,15.8l6.1,33.5
	c1.3,7.1-2.7,14.1-9.5,16.6l-39.8,14.5c-6.8,2.5-14.4-0.3-18-6.6L278,434.7c-2.1-3.8-5.6-6.4-9.6-7.6l0-0.9
	c-5.9,0.4-11.7,0.4-17.5,0.2c-6.1-0.3-11.8,2.9-14.8,8.2l-16.8,29.5c-3.6,6.3-11.1,9.1-18,6.6l-39.8-14.5
	c-6.8-2.5-10.8-9.5-9.5-16.6l6-32.6c0.8-4.3-0.1-8.5-2.5-12l0.5-0.7c-4.7-3.5-9.2-7.2-13.5-11.1c-4.5-4.1-10.9-5.4-16.6-3.2
	l-31.9,11.8c-6.8,2.5-14.4-0.2-18-6.5l-21.2-36.7c-3.6-6.3-2.2-14.2,3.4-18.8l25.5-21.1c3.3-2.8,5.4-6.6,5.8-10.7l0.9-0.2
	c-1.4-5.7-2.4-11.5-3.2-17.2c-0.8-6.1-4.9-11.1-10.6-13.2l-32-11.5c-6.8-2.4-10.9-9.4-9.6-16.5l7.4-41.7c1.3-7.2,7.4-12.3,14.7-12.2
	l33.1,0.2c4.3,0,8.3-1.6,11.3-4.5l0.8,0.4c2.6-5.2,5.5-10.3,8.6-15.2c3.3-5.2,3.4-11.6,0.3-16.9l-17.2-29.4
	c-3.7-6.3-2.3-14.2,3.3-18.9L129.8,74c5.6-4.7,13.6-4.6,19.1,0.1l25.2,21.5c3.3,2.8,7.4,4.1,11.6,3.8l0.3,0.8
	c5.4-2.3,10.9-4.4,16.4-6.1c5.8-1.8,10.1-6.7,11.1-12.8l5.7-33.5c1.2-7.2,7.3-12.4,14.6-12.4h42.4c7.3,0,13.4,5.2,14.6,12.4
	l5.5,32.7c0.7,4.3,3,7.9,6.4,10.4l-0.3,0.8c5.6,1.7,11.1,3.6,16.5,5.8c5.6,2.3,12,1.3,16.7-2.6l25.9-22c5.5-4.7,13.6-4.7,19.1-0.1
	l32.5,27.2c5.6,4.7,6.9,12.6,3.2,18.9l-16.8,28.6c-2.2,3.7-2.8,8-1.8,12.1l-0.7,0.5c3.2,4.9,6.2,9.9,8.9,15.1
	c2.8,5.4,8.4,8.8,14.5,8.7l34-0.2c7.3-0.1,13.4,5.1,14.7,12.2l7.4,41.7C478,244.8,473.9,251.8,467.1,254.2z"/>
<path d="M257.3,171.8c-46.4,0-84.2,37.8-84.2,84.2s37.8,84.2,84.2,84.2s84.2-37.8,84.2-84.2S303.7,171.8,257.3,171.8z M305.1,256
	c0,26.3-21.4,47.8-47.8,47.8c-26.3,0-47.8-21.4-47.8-47.8c0-26.3,21.4-47.8,47.8-47.8C283.7,208.2,305.1,229.7,305.1,256z"/>
<path d="M513.3,256.1c0-6.3,0-12.6,0-19c-0.4-3.4-1.4-8.5-3.9-14.1c-1.8-4.2-7.8-16.9-20.4-23.1c-3.7-1.8-8.2-2.6-17-4.2
	c-4.5-0.8-8.2-1.3-11.2-1.6c-0.7-0.1-1.4-0.2-2.2-0.2c-3.8-0.4-6.8-0.7-8.8-2.9c-0.3-0.3-0.6-0.7-0.8-1c-1.6-3.7-3.1-7.4-4.7-11.1
	c-1.5-3.7-3-7.4-4.5-11.1c-0.1-0.4-0.2-0.9-0.2-1.3c-0.1-2.9,1.8-5.3,4.2-8.2c0.4-0.6,0.9-1.1,1.3-1.7c1.8-2.4,4.1-5.3,6.8-9.1
	c5.2-7.4,7.8-11.1,9.1-15c4.6-13.3-0.2-26.6-1.9-30.8c-2.2-5.7-5.1-10-7.2-12.7c-4.5-4.5-8.9-8.9-13.4-13.4
	c-0.1-0.1-0.3-0.3-0.4-0.4c-0.1-0.1-0.3-0.3-0.4-0.4c-4.5-4.5-8.9-8.9-13.4-13.4c-2.7-2.1-7-5-12.7-7.2c-4.2-1.7-17.5-6.4-30.8-1.9
	c-3.9,1.3-7.6,3.9-15,9.1c-3.8,2.6-6.7,4.9-9.1,6.8c-0.6,0.5-1.1,0.9-1.7,1.3c-3,2.4-5.3,4.3-8.2,4.2c-0.4,0-0.9-0.1-1.3-0.2
	c-3.7-1.5-7.4-3-11.1-4.5c-3.7-1.6-7.4-3.1-11.1-4.7c-0.4-0.2-0.7-0.5-1-0.8c-2.1-2-2.5-5-2.9-8.8c-0.1-0.7-0.2-1.4-0.2-2.2
	c-0.4-3-0.8-6.7-1.6-11.2c-1.6-8.9-2.3-13.3-4.2-17c-6.2-12.7-19-18.6-23.1-20.4c-5.6-2.5-10.7-3.5-14.1-3.9c-6.3,0-12.6,0-19,0
	c-0.2,0-0.4,0-0.5,0c-0.2,0-0.4,0-0.5,0c-6.3,0-12.6,0-19,0c-3.4,0.4-8.5,1.4-14.1,3.9c-4.2,1.8-16.9,7.8-23.1,20.4
	c-1.8,3.7-2.6,8.2-4.2,17c-0.8,4.5-1.3,8.2-1.6,11.2c-0.1,0.7-0.2,1.4-0.2,2.2c-0.4,3.8-0.7,6.8-2.9,8.8c-0.3,0.3-0.7,0.6-1,0.8
	c-3.7,1.6-7.4,3.1-11.1,4.7c-3.7,1.5-7.4,3-11.1,4.5c-0.4,0.1-0.9,0.2-1.3,0.2c-2.9,0.1-5.3-1.8-8.2-4.2c-0.6-0.4-1.1-0.9-1.7-1.3
	c-2.4-1.8-5.3-4.1-9.1-6.8c-7.4-5.2-11.1-7.8-15-9.1c-13.3-4.6-26.6,0.2-30.8,1.9c-5.7,2.2-10,5.1-12.7,7.2
	c-4.5,4.5-8.9,8.9-13.4,13.4c-0.1,0.1-0.3,0.3-0.4,0.4c-0.1,0.1-0.3,0.3-0.4,0.4C70.3,80,65.8,84.5,61.4,89c-2.1,2.7-5,7-7.2,12.7
	c-1.7,4.2-6.4,17.5-1.9,30.8c1.3,3.9,3.9,7.6,9.1,15c2.6,3.8,4.9,6.7,6.8,9.1c0.5,0.6,0.9,1.1,1.3,1.7c2.4,3,4.3,5.3,4.2,8.2
	c0,0.4-0.1,0.9-0.2,1.3c-1.5,3.7-3,7.4-4.5,11.1c-1.6,3.7-3.1,7.4-4.7,11.1c-0.2,0.4-0.5,0.7-0.8,1c-2,2.1-5,2.5-8.8,2.9
	c-0.7,0.1-1.4,0.2-2.2,0.2c-3,0.4-6.7,0.8-11.2,1.6c-8.9,1.6-13.3,2.3-17,4.2c-12.7,6.2-18.6,19-20.4,23.1
	c-2.5,5.6-3.5,10.7-3.9,14.1c0,6.3,0,12.6,0,19c0,0.2,0,0.4,0,0.5c0,0.2,0,0.4,0,0.5c0,6.3,0,12.6,0,19c0.4,3.4,1.4,8.5,3.9,14.1
	c1.8,4.2,7.8,16.9,20.4,23.1c3.7,1.8,8.2,2.6,17,4.2c4.5,0.8,8.2,1.3,11.2,1.6c0.7,0.1,1.4,0.2,2.2,0.2c3.8,0.4,6.8,0.7,8.8,2.9
	c0.3,0.3,0.6,0.7,0.8,1c1.6,3.7,3.1,7.4,4.7,11.1c1.5,3.7,3,7.4,4.5,11.1c0.1,0.4,0.2,0.9,0.2,1.3c0.1,2.9-1.8,5.3-4.2,8.2
	c-0.4,0.6-0.9,1.1-1.3,1.7c-1.8,2.4-4.1,5.3-6.8,9.1c-5.2,7.4-7.8,11.1-9.1,15c-4.6,13.3,0.2,26.6,1.9,30.8c2.2,5.7,5.1,10,7.2,12.7
	c4.5,4.5,8.9,8.9,13.4,13.4c0.1,0.1,0.3,0.3,0.4,0.4c0.1,0.1,0.3,0.3,0.4,0.4c4.5,4.5,8.9,8.9,13.4,13.4c2.7,2.1,7,5,12.7,7.2
	c4.2,1.7,17.5,6.4,30.8,1.9c3.9-1.3,7.6-3.9,15-9.1c3.8-2.6,6.7-4.9,9.1-6.8c0.6-0.5,1.1-0.9,1.7-1.3c3-2.4,5.3-4.3,8.2-4.2
	c0.4,0,0.9,0.1,1.3,0.2c3.7,1.5,7.4,3,11.1,4.5c3.7,1.6,7.4,3.1,11.1,4.7c0.4,0.2,0.7,0.5,1,0.8c2.1,2,2.5,5,2.9,8.8
	c0.1,0.7,0.2,1.4,0.2,2.2c0.4,3,0.8,6.7,1.6,11.2c1.6,8.9,2.3,13.3,4.2,17c6.2,12.7,19,18.6,23.1,20.4c5.6,2.5,10.7,3.5,14.1,3.9
	c6.3,0,12.6,0,19,0c0.2,0,0.4,0,0.5,0c0.2,0,0.4,0,0.5,0c6.3,0,12.6,0,19,0c3.4-0.4,8.5-1.4,14.1-3.9c4.2-1.8,16.9-7.8,23.1-20.4
	c1.8-3.7,2.6-8.2,4.2-17c0.8-4.5,1.3-8.2,1.6-11.2c0.1-0.7,0.2-1.4,0.2-2.2c0.4-3.8,0.7-6.8,2.9-8.8c0.3-0.3,0.7-0.6,1-0.8
	c3.7-1.6,7.4-3.1,11.1-4.7c3.7-1.5,7.4-3,11.1-4.5c0.4-0.1,0.9-0.2,1.3-0.2c2.9-0.1,5.3,1.8,8.2,4.2c0.6,0.4,1.1,0.9,1.7,1.3
	c2.4,1.8,5.3,4.1,9.1,6.8c7.4,5.2,11.1,7.8,15,9.1c13.3,4.6,26.6-0.2,30.8-1.9c5.7-2.2,10-5.1,12.7-7.2c4.5-4.5,8.9-8.9,13.4-13.4
	c0.1-0.1,0.3-0.3,0.4-0.4c0.1-0.1,0.3-0.3,0.4-0.4c4.5-4.5,8.9-8.9,13.4-13.4c2.1-2.7,5-7,7.2-12.7c1.7-4.2,6.4-17.5,1.9-30.8
	c-1.3-3.9-3.9-7.6-9.1-15c-2.6-3.8-4.9-6.7-6.8-9.1c-0.5-0.6-0.9-1.1-1.3-1.7c-2.4-3-4.3-5.3-4.2-8.2c0-0.4,0.1-0.9,0.2-1.3
	c1.5-3.7,3-7.4,4.5-11.1c1.6-3.7,3.1-7.4,4.7-11.1c0.2-0.4,0.5-0.7,0.8-1c2-2.1,5-2.5,8.8-2.9c0.7-0.1,1.4-0.2,2.2-0.2
	c3-0.4,6.7-0.8,11.2-1.6c8.9-1.6,13.3-2.3,17-4.2c12.7-6.2,18.6-19,20.4-23.1c2.5-5.6,3.5-10.7,3.9-14.1c0-6.3,0-12.6,0-19
	c0-0.2,0-0.4,0-0.5C513.3,256.5,513.3,256.3,513.3,256.1z M474.5,256v1.3V271c0,5-3.6,9.2-8.5,10l-33.3,5.7
	c-4.1,0.7-7.8,2.5-10.7,5.4c-3.4,3.3-4.8,7.1-5.4,8.6c-1,2.6-2.5,6.3-4.5,11l-0.1-0.1c-1.2,2.9-2.3,5.6-3.3,8.1
	c-1.1,2.5-2.2,5.2-3.4,8.1l0.1,0.1c-1.9,4.7-3.4,8.4-4.6,10.9c-0.6,1.4-2.4,5.1-2.2,9.9c0.1,4.1,1.4,8,3.8,11.4l19.5,27.5
	c2.9,4.1,2.4,9.6-1.1,13.1l-9.7,9.7l-0.9,0.9l-9.7,9.7c-3.5,3.5-9,4-13.1,1.1l-27.5-19.5c-3.4-2.4-7.3-3.7-11.4-3.8
	c-4.7-0.1-8.4,1.6-9.9,2.2c-2.6,1.1-6.3,2.7-10.9,4.6l-0.1-0.1c-2.9,1.2-5.5,2.3-8.1,3.4c-2.5,1-5.2,2.1-8.1,3.3l0.1,0.1
	c-4.6,2-8.3,3.5-11,4.5c-1.5,0.6-5.3,2-8.6,5.4c-2.8,3-4.7,6.7-5.4,10.7L281,466c-0.8,4.9-5,8.5-10,8.5h-13.7H256h-13.7
	c-5,0-9.2-3.6-10-8.5l-5.7-33.3c-0.7-4.1-2.5-7.8-5.4-10.7c-3.3-3.4-7.1-4.8-8.6-5.4c-2.6-1-6.3-2.5-11-4.5l0.1-0.1
	c-2.9-1.2-5.6-2.3-8.1-3.3c-2.5-1.1-5.2-2.2-8.1-3.4l-0.1,0.1c-4.7-1.9-8.4-3.4-10.9-4.6c-1.4-0.6-5.1-2.4-9.9-2.2
	c-4.1,0.1-8,1.4-11.4,3.8l-27.5,19.5c-4.1,2.9-9.6,2.4-13.1-1.1l-9.7-9.7l-0.9-0.9l-9.7-9.7c-3.5-3.5-4-9-1.1-13.1l19.5-27.5
	c2.4-3.4,3.7-7.3,3.8-11.4c0.1-4.7-1.6-8.4-2.2-9.9c-1.1-2.6-2.7-6.3-4.6-10.9l0.1-0.1c-1.2-2.9-2.3-5.5-3.4-8.1
	c-1-2.5-2.1-5.2-3.3-8.1l-0.1,0.1c-2-4.6-3.5-8.3-4.5-11c-0.6-1.5-2-5.3-5.4-8.6c-3-2.8-6.7-4.7-10.7-5.4L47.3,281
	c-4.9-0.8-8.5-5-8.5-10v-13.7V256v-13.7c0-5,3.6-9.2,8.5-10l33.3-5.7c4.1-0.7,7.8-2.5,10.7-5.4c3.4-3.3,4.8-7.1,5.4-8.6
	c1-2.6,2.5-6.3,4.5-11l0.1,0.1c1.2-2.9,2.3-5.6,3.3-8.1c1.1-2.5,2.2-5.2,3.4-8.1l-0.1-0.1c1.9-4.7,3.4-8.4,4.6-10.9
	c0.6-1.4,2.4-5.1,2.2-9.9c-0.1-4.1-1.4-8-3.8-11.4l-19.5-27.5c-2.9-4.1-2.4-9.6,1.1-13.1l9.7-9.7l0.9-0.9l9.7-9.7
	c3.5-3.5,9-4,13.1-1.1l27.5,19.5c3.4,2.4,7.3,3.7,11.4,3.8c4.7,0.1,8.4-1.6,9.9-2.2c2.6-1.1,6.3-2.7,10.9-4.6l0.1,0.1
	c2.9-1.2,5.5-2.3,8.1-3.4c2.5-1,5.2-2.1,8.1-3.3l-0.1-0.1c4.6-2,8.3-3.5,11-4.5c1.5-0.6,5.3-2,8.6-5.4c2.8-3,4.7-6.7,5.4-10.7
	l5.7-33.3c0.8-4.9,5-8.5,10-8.5H256h1.3H271c5,0,9.2,3.6,10,8.5l5.7,33.3c0.7,4.1,2.5,7.8,5.4,10.7c3.3,3.4,7.1,4.8,8.6,5.4
	c2.6,1,6.3,2.5,11,4.5l-0.1,0.1c2.9,1.2,5.6,2.3,8.1,3.3c2.5,1.1,5.2,2.2,8.1,3.4l0.1-0.1c4.7,1.9,8.4,3.4,10.9,4.6
	c1.4,0.6,5.1,2.4,9.9,2.2c4.1-0.1,8-1.4,11.4-3.8l27.5-19.5c4.1-2.9,9.6-2.4,13.1,1.1l9.7,9.7l0.9,0.9l9.7,9.7c3.5,3.5,4,9,1.1,13.1
	l-19.5,27.5c-2.4,3.4-3.7,7.3-3.8,11.4c-0.1,4.7,1.6,8.4,2.2,9.9c1.1,2.6,2.7,6.3,4.6,10.9l-0.1,0.1c1.2,2.9,2.3,5.5,3.4,8.1
	c1,2.5,2.1,5.2,3.3,8.1l0.1-0.1c2,4.6,3.5,8.3,4.5,11c0.6,1.5,2,5.3,5.4,8.6c3,2.8,6.7,4.7,10.7,5.4l33.3,5.7c4.9,0.8,8.5,5,8.5,10
	V256z"/>
</svg>
