<?xml version="1.0" encoding="utf-8"?>
<!-- Generator: Adobe Illustrator 21.0.0, SVG Export Plug-In . SVG Version: 6.00 Build 0)  -->
<svg version="1.1" id="Слой_1" focusable="false"
	 xmlns="http://www.w3.org/2000/svg" xmlns:xlink="http://www.w3.org/1999/xlink" x="0px" y="0px" viewBox="0 0 512 512"
	 style="enable-background:new 0 0 512 512;" xml:space="preserve">
<path d="M256,13.8c-134.6,0-243.8,109.1-243.8,243.8S121.4,501.3,256,501.3s243.8-109.1,243.8-243.8S390.6,13.8,256,13.8z
	 M256,457.7c-110.5,0-200.1-89.6-200.1-200.1S145.5,57.4,256,57.4S456.1,147,456.1,257.6S366.5,457.7,256,457.7z"/>
<path d="M256,302.5L256,302.5c-11.8,0-21.4-9.6-21.4-21.4V128.9c0-11.8,9.6-21.4,21.4-21.4h0c11.8,0,21.4,9.6,21.4,21.4v152.2
	C277.4,292.9,267.8,302.5,256,302.5z"/>
<path d="M256,401.5L256,401.5c-11.8,0-21.4-9.6-21.4-21.4v0c0-11.8,9.6-21.4,21.4-21.4h0c11.8,0,21.4,9.6,21.4,21.4v0
	C277.4,391.9,267.8,401.5,256,401.5z"/>
</svg>
