<?xml version="1.0" encoding="utf-8"?>
<!-- Generator: Adobe Illustrator 21.0.0, SVG Export Plug-In . SVG Version: 6.00 Build 0)  -->
<svg version="1.1" id="Слой_1" focusable="false"
	 xmlns="http://www.w3.org/2000/svg" xmlns:xlink="http://www.w3.org/1999/xlink" x="0px" y="0px" viewBox="0 0 448 448"
	 style="enable-background:new 0 0 448 448;" xml:space="preserve">
<path d="M311,100l-7.1,7.1c-4.7,4.7-4.7,12.3,0,17l83.9,83.4H12c-6.6,0-12,5.4-12,12v10c0,6.6,5.4,12,12,12h375.9L304,324.9
	c-4.7,4.7-4.7,12.3,0,17l7.1,7.1c4.7,4.7,12.3,4.7,17,0l116.5-116c4.7-4.7,4.7-12.3,0-17L328,100C323.3,95.3,315.7,95.3,311,100z"/>
</svg>
