<?xml version="1.0" encoding="utf-8"?>
<!-- Generator: Adobe Illustrator 24.0.1, SVG Export Plug-In . SVG Version: 6.00 Build 0)  -->
<svg version="1.1" id="Layer_1" xmlns="http://www.w3.org/2000/svg" xmlns:xlink="http://www.w3.org/1999/xlink" x="0px" y="0px"
	 viewBox="0 0 18 18" style="enable-background:new 0 0 18 18;" xml:space="preserve">
<style type="text/css">
	.st0{fill:none;}
</style>
<path class="st0" d="M0,0h18v18H0V0z"/>
<path d="M4.4,12.7h6.3v1.8H4.4V12.7z M4.4,9.1h9v1.8h-9V9.1z M4.4,5.5h9v1.8h-9V5.5z M15.2,1.9h-3.8c-0.4-1-1.4-1.8-2.5-1.8
	S6.8,0.8,6.4,1.9H2.6c-0.1,0-0.2,0-0.4,0C1.9,2,1.6,2.2,1.4,2.4C1.2,2.6,1.1,2.8,1,3C0.9,3.2,0.8,3.4,0.8,3.7v12.6
	c0,0.2,0.1,0.5,0.1,0.7s0.2,0.4,0.4,0.6C1.6,17.8,1.9,18,2.3,18c0.1,0,0.2,0,0.4,0h12.6c1,0,1.8-0.8,1.8-1.8V3.7
	C17,2.7,16.2,1.9,15.2,1.9z M8.9,1.6c0.4,0,0.7,0.3,0.7,0.7S9.3,3,8.9,3S8.3,2.7,8.3,2.3S8.6,1.6,8.9,1.6z M15.2,16.3H2.6V3.7h12.6
	V16.3z"/>
</svg>
