<?xml version="1.0" encoding="utf-8"?>
<!-- Generator: Adobe Illustrator 24.0.1, SVG Export Plug-In . SVG Version: 6.00 Build 0)  -->
<svg version="1.1" id="Layer_1" xmlns="http://www.w3.org/2000/svg" xmlns:xlink="http://www.w3.org/1999/xlink" x="0px" y="0px"
	 viewBox="0 0 20 16" style="enable-background:new 0 0 20 16;" xml:space="preserve">
<path d="M3.3,2.1H0.9v13h18.2v-13h-2.4V0.9h-5.5c-0.5,0-0.9,0.2-1.2,0.4C9.7,1,9.3,0.9,8.8,0.9H3.3C3.3,0.9,3.3,2.1,3.3,2.1z
	 M16.7,3.6h1v10H2.3v-10h1v9.1h5.5c0.3,0,0.5,0.2,0.5,0.5v0.1h1.4v-0.1c0-0.3,0.2-0.5,0.5-0.5h5.5C16.7,12.7,16.7,3.6,16.7,3.6z
	 M10.7,2.9c0-0.3,0.2-0.5,0.5-0.5h4.1v8.8h-4.1c-0.2,0-0.3,0-0.5,0.1C10.7,11.2,10.7,2.9,10.7,2.9z M4.7,2.4h4.1
	c0.3,0,0.5,0.2,0.5,0.5v8.4c-0.2,0-0.3-0.1-0.5-0.1H4.7C4.7,11.2,4.7,2.4,4.7,2.4z"/>
</svg>
