<?xml version="1.0" encoding="utf-8"?>
<!-- Generator: Adobe Illustrator 24.0.1, SVG Export Plug-In . SVG Version: 6.00 Build 0)  -->
<svg version="1.1" id="Layer_1" xmlns="http://www.w3.org/2000/svg" xmlns:xlink="http://www.w3.org/1999/xlink" x="0px" y="0px"
	 viewBox="0 0 18 18" style="enable-background:new 0 0 18 18;" xml:space="preserve">
<style type="text/css">
	.st0{fill:none;}
</style>
<path class="st0" d="M0,0h18v18H0V0z"/>
<path d="M14.5,7.3L13.2,6l-6,6L4.8,9.6l-1.3,1.3l3.6,3.6L14.5,7.3z M15.4,1.8h-3.8C11.2,0.8,10.2,0,9,0S6.8,0.8,6.4,1.8H2.6
	c-0.1,0-0.2,0-0.4,0C1.9,1.9,1.6,2.1,1.4,2.4C1.2,2.5,1.1,2.7,1,2.9C0.9,3.1,0.8,3.4,0.8,3.6v12.7c0,0.2,0.1,0.5,0.1,0.7
	c0.1,0.2,0.2,0.4,0.4,0.6c0.2,0.2,0.6,0.4,0.9,0.5c0.1,0,0.2,0,0.4,0h12.7c1,0,1.8-0.8,1.8-1.8V3.6C17.2,2.6,16.4,1.8,15.4,1.8z
	 M9,1.6c0.4,0,0.7,0.3,0.7,0.7S9.4,3,9,3S8.3,2.6,8.3,2.3S8.6,1.6,9,1.6z M15.4,16.4H2.6V3.6h12.7V16.4z"/>
</svg>
