<?xml version="1.0" encoding="utf-8"?>
<!-- Generator: Adobe Illustrator 21.0.0, SVG Export Plug-In . SVG Version: 6.00 Build 0)  -->
<svg version="1.1" id="Слой_1" focusable="false"
	 xmlns="http://www.w3.org/2000/svg" xmlns:xlink="http://www.w3.org/1999/xlink" x="0px" y="0px" width="512px" height="512px"
	 viewBox="0 0 512 512" style="enable-background:new 0 0 512 512;" xml:space="preserve">
<style type="text/css">
	.st0{fill:#36758C;}
</style>
<g>
	<path class="st0" d="M190.9,88.2c-7.1-7.1-18.8-7.1-28.3,0c-7.1,9.4-7.1,21.2,0,30.6l106,115.4H102.7c-18.9,0-37.8,0-56.7,0
		c-9.1,0-18.1,0-27.2,0c-9.4,0-18.8,9.4-18.8,21.2s9.4,21.2,18.8,21.2c9.1,0,18.1,0,27.2,0.1v0.1c9.7,0,19.4,0,29.1,0
		c9.5,0,19.1,0,28.6,0.1c0,0,0-0.1,0-0.1c54.9,0,109.9-0.1,164.8-0.1l-106,115.4c-7.1,9.4-7.1,21.2,0,30.6
		c7.1,7.1,18.8,9.4,25.9,2.4l2.4-2.4l153.1-167.2L190.9,88.2z"/>
</g>
<path class="st0" d="M426.1,45.9H381v0h-27.4c-9.5,0-19,9.5-19,21.4s9.5,21.4,19,21.4c4.6,0,9.3,0,13.9,0l0,0.1h58.6
	c23.7,0,43,19.2,43,43v62.4v19.4v50.9v3.5v50.9v19.4v62.4c0,23.7-19.2,43-43,43h-58.6l0,0.1c-4.6,0-9.3,0-13.9,0
	c-9.5,0-19,9.5-19,21.4s9.5,21.4,19,21.4H381v0h45.1c47.4,0,85.9-38.5,85.9-85.9v-62.4v-19.4V268v-3.5v-50.9v-19.4v-62.4
	C512,84.4,473.5,45.9,426.1,45.9z"/>
</svg>
