<?xml version="1.0" encoding="utf-8"?>
<!-- Generator: Adobe Illustrator 21.0.0, SVG Export Plug-In . SVG Version: 6.00 Build 0)  -->
<svg version="1.1" id="Capa_1" xmlns="http://www.w3.org/2000/svg" xmlns:xlink="http://www.w3.org/1999/xlink" x="0px" y="0px"
	 viewBox="420 0 1080 1080" style="enable-background:new 420 0 1080 1080;" xml:space="preserve">
<path d="M958.2,603c159.6,0,289.1-129.5,289.1-289.1S1117.8,25.7,958.2,25.7S669.2,155.2,669.2,313.9S798.6,603,958.2,603z
	 M958.2,101.1c117,0,212.8,95.8,212.8,212.8s-95.8,212.8-212.8,212.8s-212.8-95.8-212.8-212.8S841.2,101.1,958.2,101.1z"/>
<path d="M458.1,1054.3h1003.7c21.3,0,38.1-16.8,38.1-38.1c0-199.5-162.3-362.7-362.7-362.7H782.7c-199.5,0-362.7,162.3-362.7,362.7
	C420,1037.4,436.8,1054.3,458.1,1054.3z M782.7,729.8h354.7c145.4,0,265.1,108.2,283.7,248.3H498.9
	C517.5,838.8,637.2,729.8,782.7,729.8z"/>
</svg>
