<?xml version="1.0" encoding="utf-8"?>
<!-- Generator: Adobe Illustrator 21.0.0, SVG Export Plug-In . SVG Version: 6.00 Build 0)  -->
<svg version="1.1" id="Слой_1" focusable="false"
	 xmlns="http://www.w3.org/2000/svg" xmlns:xlink="http://www.w3.org/1999/xlink" x="0px" y="0px" viewBox="0 0 512 512"
	 style="enable-background:new 0 0 512 512;" xml:space="preserve">
<path d="M511.1,167c0-49.3,0-98.7,0-148v-0.1C509.8,8.1,500.6,0,489.9,0c-10.9,0-20,8.1-21.2,18.9v119.3
	C425.4,61.1,344.2,13.3,255.7,13.3c-65.2,0-126.3,25.3-172.4,71.4S11.9,192,11.9,257.2s25.3,126.3,71.4,172.4S190.5,501,255.7,501
	c65.4,0,126.7-25.5,172.8-71.8l0.1-0.1c6.8-8.6,6.1-21-1.7-28.9c-7.8-7.8-20.2-8.5-28.9-1.8l-0.1,0.1c-23.4,23.3-52,40.6-82.8,50.2
	c-0.3,0.1-30,8.9-59.4,8.9c-110.6,0-200.6-90-200.6-200.6s90-200.6,200.6-200.6c78,0,149.2,45.6,182,116.2h-20.2
	c-34.2,0-68.6,0-102.8,0h-0.1c-10.8,1.3-18.9,10.5-18.9,21.2c0,10.9,8.1,20,18.9,21.2h0.1c47.4,0,94.7,0,142.1,0h54.3v-41.6v-1
	L511.1,167z"/>
</svg>
