<?xml version="1.0" encoding="utf-8"?>
<!-- Generator: Adobe Illustrator 21.0.0, SVG Export Plug-In . SVG Version: 6.00 Build 0)  -->
<svg version="1.1" id="Слой_1" focusable="false"
	 xmlns="http://www.w3.org/2000/svg" xmlns:xlink="http://www.w3.org/1999/xlink" x="0px" y="0px" viewBox="0 0 512 512"
	 style="enable-background:new 0 0 512 512;" xml:space="preserve">
<style type="text/css">
	.st0{fill:none;}
</style>
<path d="M373.8,42.5l-21.2,38.1c61.7,34.1,103.5,99.8,103.5,175.3c0,110.5-89.6,200.1-200.1,200.1S55.9,366.5,55.9,256
	c0-75.7,42-141.5,103.9-175.5l-21.2-38.1C63.3,83.8,12.3,163.9,12.3,256c0,134.6,109.1,243.8,243.8,243.8S499.8,390.6,499.8,256
	C499.8,164.1,448.9,84.1,373.8,42.5z"/>
<line class="st0" x1="138.6" y1="42.3" x2="132.9" y2="32"/>
<line class="st0" x1="379.6" y1="32" x2="373.8" y2="42.5"/>
</svg>
