<?xml version="1.0" encoding="utf-8"?>
<!-- Generator: Adobe Illustrator 21.0.0, SVG Export Plug-In . SVG Version: 6.00 Build 0)  -->
<svg version="1.1" id="Слой_1" xmlns="http://www.w3.org/2000/svg" xmlns:xlink="http://www.w3.org/1999/xlink" x="0px" y="0px"
	 viewBox="0 0 42.1 42.1" style="enable-background:new 0 0 42.1 42.1;" xml:space="preserve">
<style type="text/css">
	.st0{fill:#0F0F0F;}
	.st1{fill:#E18C44;}
	.st2{fill:none;}
</style>
<g>
	<g>
		<path class="st0" d="M5.9,11.6h6.8l-0.4,3.8h-7l-0.4,2.6h7.4l-0.6,4H0.1L2.5,5h11.9l-0.6,4H6.3L5.9,11.6z"/>
		<path class="st0" d="M27.2,5l-0.6,4h-6.2l-1.8,13.1h-4.2L16.8,5C16.8,5,27.2,5,27.2,5z"/>
		<path class="st0" d="M36.7,15.2h-3.8l0.6-3.6h3.8l0.2-1c0-1.2-1-1.8-2.2-1.8c-1,0-2.2,0.4-2.8,1.4l-3.2-1.4c1.8-3,4.4-4,6.6-4
			c3.4,0,6.6,2,6,5.8l-0.8,5.8c-0.6,3.8-4.2,5.8-7.6,5.8c-2.2,0-4.6-1-5.6-3.8l4-1.8c0.2,1,1.2,1.4,2.2,1.4c1.2,0,2.4-0.6,2.6-1.8
			L36.7,15.2z"/>
	</g>
	<g>
		<path class="st1" d="M3.1,37.2h-3l1.6-11.5h3L4,30h3.3L8,25.7h3L9.3,37.2h-3l0.5-4.3H3.6L3.1,37.2z"/>
		<path class="st1" d="M20.8,37.2h-3.1l-0.4-2.3h-3.1l-1.1,2.3H10l5.6-11.5h2.7L20.8,37.2z M17.1,32.3l-0.4-3.4h-0.1l-1.2,3.4H17.1z
			"/>
		<path class="st1" d="M30.1,34.7c-1.4,2-3.1,2.6-4.5,2.6c-2.3,0-4.3-1.4-3.9-3.9l0.4-3.9c0.4-2.6,2.8-3.9,5.2-3.9
			c1.4,0,3,0.5,3.7,2.7l-2.4,0.9c-0.3-0.7-0.9-0.9-1.6-0.9c-0.8,0-1.6,0.4-1.8,1.2l-0.5,3.9c-0.1,0.8,0.5,1.2,1.4,1.2
			c0.7,0,1.4-0.3,1.8-1.1L30.1,34.7z"/>
		<path class="st1" d="M38.3,25.7H42l-5.3,5.7l3.7,5.8h-3.7l-2.4-4.1l0,0.1l-0.5,3.9h-3l1.6-11.5h3l-0.5,4.2L38.3,25.7z"/>
	</g>
</g>
<rect class="st2" width="42.1" height="42.1"/>
</svg>
