<?xml version="1.0" encoding="utf-8"?>
<!-- Generator: Adobe Illustrator 21.0.0, SVG Export Plug-In . SVG Version: 6.00 Build 0)  -->
<svg version="1.1" id="Слой_1" xmlns="http://www.w3.org/2000/svg" xmlns:xlink="http://www.w3.org/1999/xlink" x="0px" y="0px"
	 viewBox="0 0 68.5 10.2" style="enable-background:new 0 0 68.5 10.2;" xml:space="preserve">
<style type="text/css">
	.st0{fill:#0F0F0F;}
	.st1{fill:#E18C44;}
</style>
<g>
	<path class="st0" d="M2.9,3.4h3.4L6.1,5.3H2.6L2.4,6.6h3.7l-0.3,2H0l1.2-8.5h5.9l-0.3,2H3.1L2.9,3.4z"/>
	<path class="st0" d="M13.5,0.1l-0.3,2h-3.1L9.2,8.6H7.1l1.2-8.5H13.5z"/>
	<path class="st0" d="M18.2,5.2h-1.9l0.3-1.8h1.9l0.1-0.5C18.6,2.3,18.1,2,17.5,2c-0.5,0-1.1,0.2-1.4,0.7L14.5,2
		c0.9-1.5,2.2-2,3.3-2c1.7,0,3.3,1,3,2.9l-0.4,2.9c-0.3,1.9-2.1,2.9-3.8,2.9c-1.1,0-2.3-0.5-2.8-1.9l2-0.9c0.1,0.5,0.6,0.7,1.1,0.7
		c0.6,0,1.2-0.3,1.3-0.9L18.2,5.2z"/>
</g>
<g>
	<path class="st1" d="M32.4,10.2h-6l0.3-2h6L32.4,10.2z"/>
	<path class="st0" d="M36,8.6h-2.2L35,0.1h2.2l-0.5,3.2h2.4l0.5-3.2h2.2l-1.2,8.5h-2.2l0.4-3.2h-2.4L36,8.6z"/>
	<path class="st0" d="M49.1,8.6h-2.3l-0.3-1.7h-2.3l-0.8,1.7h-2.3l4.1-8.5h2L49.1,8.6z M46.3,5L46,2.5h-0.1L45,5H46.3z"/>
	<path class="st0" d="M55.9,6.8c-1,1.5-2.3,1.9-3.3,1.9c-1.7,0-3.2-1-2.9-2.9L50,2.9C50.3,1,52.1,0,53.8,0c1,0,2.2,0.4,2.7,2
		l-1.8,0.7C54.5,2.2,54,2,53.5,2c-0.6,0-1.2,0.3-1.3,0.9l-0.4,2.9c-0.1,0.6,0.4,0.9,1,0.9c0.5,0,1-0.2,1.3-0.8L55.9,6.8z"/>
	<path class="st0" d="M62,0.1h2.7l-3.9,4.2l2.7,4.3h-2.7l-1.8-3L59,5.7l-0.4,2.9h-2.2l1.2-8.5h2.2l-0.4,3.1L62,0.1z"/>
</g>
<g>
	<g>
		<path class="st1" d="M22,1.6c1.8-2.8,5.6-1.7,5.2,1.1c-0.1,1-0.9,2.2-2.4,2.4l-0.3,1.4h-1.8l0.3-2.7c1,0.4,2,0,2.1-0.9
			c0.1-0.9-1.3-1.1-2-0.2L22,1.6z M23.5,6.8c0.6,0,1,0.4,0.9,1.1c-0.1,0.6-0.6,1.1-1.2,1.1c-0.6,0-1-0.5-0.9-1.1
			C22.4,7.2,22.9,6.8,23.5,6.8z"/>
	</g>
</g>
<g>
	<g>
		<path class="st1" d="M66.4,6.3c0.7,0,1.1,0.5,1,1.2c-0.1,0.7-0.7,1.2-1.4,1.2c-0.7,0-1.1-0.5-1-1.2C65.2,6.9,65.8,6.3,66.4,6.3z
			 M66.1,0.1h2.4l-1,5.9h-2.2L66.1,0.1z"/>
	</g>
</g>
</svg>
